<mxfile host="www.draw.io" modified="2020-04-30T07:59:12.562Z" agent="5.0 (Macintosh; Intel Mac OS X 10_13_5) AppleWebKit/537.36 (KHTML, like Gecko) Chrome/81.0.4044.129 Safari/537.36" etag="M4EPc3nzzQyOL1KP1zrp" version="13.0.2" type="github">
  <diagram id="g0auPQXO4DSCEusMvaj7" name="Page-1">
    <mxGraphModel dx="946" dy="542" grid="1" gridSize="10" guides="1" tooltips="1" connect="1" arrows="1" fold="1" page="1" pageScale="1" pageWidth="827" pageHeight="1169" math="0" shadow="0">
      <root>
        <mxCell id="0" />
        <mxCell id="1" parent="0" />
        <mxCell id="aU09OvFiJm3tNT_z4pgw-11" style="edgeStyle=orthogonalEdgeStyle;rounded=0;orthogonalLoop=1;jettySize=auto;html=1;exitX=0.5;exitY=1;exitDx=0;exitDy=0;entryX=0.5;entryY=0;entryDx=0;entryDy=0;" edge="1" parent="1" source="aU09OvFiJm3tNT_z4pgw-1" target="aU09OvFiJm3tNT_z4pgw-3">
          <mxGeometry relative="1" as="geometry" />
        </mxCell>
        <mxCell id="aU09OvFiJm3tNT_z4pgw-1" value="服务" style="rounded=1;whiteSpace=wrap;html=1;fillColor=#008a00;strokeColor=#005700;fontColor=#ffffff;" vertex="1" parent="1">
          <mxGeometry x="200" y="120" width="370" height="70" as="geometry" />
        </mxCell>
        <mxCell id="aU09OvFiJm3tNT_z4pgw-3" value="" style="rounded=0;whiteSpace=wrap;html=1;fillColor=#f5f5f5;strokeColor=#666666;fontColor=#333333;" vertex="1" parent="1">
          <mxGeometry x="125" y="220" width="520" height="220" as="geometry" />
        </mxCell>
        <mxCell id="aU09OvFiJm3tNT_z4pgw-4" value="依赖2" style="ellipse;shape=cloud;whiteSpace=wrap;html=1;fillColor=#008a00;strokeColor=#005700;fontColor=#ffffff;" vertex="1" parent="1">
          <mxGeometry x="180" y="290" width="120" height="80" as="geometry" />
        </mxCell>
        <mxCell id="aU09OvFiJm3tNT_z4pgw-5" value="依赖1" style="ellipse;shape=cloud;whiteSpace=wrap;html=1;fillColor=#008a00;strokeColor=#005700;fontColor=#ffffff;" vertex="1" parent="1">
          <mxGeometry x="330" y="240" width="120" height="80" as="geometry" />
        </mxCell>
        <mxCell id="aU09OvFiJm3tNT_z4pgw-6" value="依赖3" style="ellipse;shape=cloud;whiteSpace=wrap;html=1;fillColor=#a20025;strokeColor=#6F0000;fontColor=#ffffff;" vertex="1" parent="1">
          <mxGeometry x="310" y="350" width="120" height="80" as="geometry" />
        </mxCell>
        <mxCell id="aU09OvFiJm3tNT_z4pgw-8" value="服务依赖" style="text;html=1;strokeColor=none;fillColor=none;align=center;verticalAlign=middle;whiteSpace=wrap;rounded=0;" vertex="1" parent="1">
          <mxGeometry x="590" y="220" width="60" height="20" as="geometry" />
        </mxCell>
        <mxCell id="aU09OvFiJm3tNT_z4pgw-13" value="依赖N" style="ellipse;shape=cloud;whiteSpace=wrap;html=1;fillColor=#a20025;strokeColor=#6F0000;fontColor=#ffffff;" vertex="1" parent="1">
          <mxGeometry x="460" y="290" width="120" height="80" as="geometry" />
        </mxCell>
        <mxCell id="aU09OvFiJm3tNT_z4pgw-19" value="" style="rounded=1;whiteSpace=wrap;html=1;rotation=90;glass=0;comic=0;fillColor=#60a917;strokeColor=#2D7600;fontColor=#ffffff;" vertex="1" parent="1">
          <mxGeometry x="200" y="70" width="120" height="30" as="geometry" />
        </mxCell>
        <mxCell id="aU09OvFiJm3tNT_z4pgw-20" value="请&lt;br&gt;求" style="text;html=1;strokeColor=none;fillColor=none;align=center;verticalAlign=middle;whiteSpace=wrap;rounded=0;glass=0;comic=0;" vertex="1" parent="1">
          <mxGeometry x="240" y="70" width="40" height="20" as="geometry" />
        </mxCell>
        <mxCell id="aU09OvFiJm3tNT_z4pgw-21" value="" style="rounded=1;whiteSpace=wrap;html=1;rotation=90;glass=0;comic=0;fillColor=#60a917;strokeColor=#2D7600;fontColor=#ffffff;" vertex="1" parent="1">
          <mxGeometry x="270" y="70" width="120" height="30" as="geometry" />
        </mxCell>
        <mxCell id="aU09OvFiJm3tNT_z4pgw-22" value="请&lt;br&gt;求" style="text;html=1;strokeColor=none;fillColor=none;align=center;verticalAlign=middle;whiteSpace=wrap;rounded=0;glass=0;comic=0;" vertex="1" parent="1">
          <mxGeometry x="310" y="70" width="40" height="20" as="geometry" />
        </mxCell>
        <mxCell id="aU09OvFiJm3tNT_z4pgw-23" value="" style="rounded=1;whiteSpace=wrap;html=1;rotation=90;glass=0;comic=0;fillColor=#60a917;strokeColor=#2D7600;fontColor=#ffffff;" vertex="1" parent="1">
          <mxGeometry x="370" y="70" width="120" height="30" as="geometry" />
        </mxCell>
        <mxCell id="aU09OvFiJm3tNT_z4pgw-24" value="请&lt;br&gt;求" style="text;html=1;strokeColor=none;fillColor=none;align=center;verticalAlign=middle;whiteSpace=wrap;rounded=0;glass=0;comic=0;" vertex="1" parent="1">
          <mxGeometry x="410" y="70" width="40" height="20" as="geometry" />
        </mxCell>
        <mxCell id="aU09OvFiJm3tNT_z4pgw-25" value="" style="rounded=1;whiteSpace=wrap;html=1;rotation=90;glass=0;comic=0;fillColor=#60a917;strokeColor=#2D7600;fontColor=#ffffff;" vertex="1" parent="1">
          <mxGeometry x="450" y="70" width="120" height="30" as="geometry" />
        </mxCell>
        <mxCell id="aU09OvFiJm3tNT_z4pgw-26" value="请&lt;br&gt;求" style="text;html=1;strokeColor=none;fillColor=none;align=center;verticalAlign=middle;whiteSpace=wrap;rounded=0;glass=0;comic=0;" vertex="1" parent="1">
          <mxGeometry x="490" y="70" width="40" height="20" as="geometry" />
        </mxCell>
      </root>
    </mxGraphModel>
  </diagram>
</mxfile>
